<?xml version="1.0" encoding="UTF-8" standalone="no"?>
<svg
   viewBox="0 0 512 512"
   version="1.1"
   id="svg4"
   sodipodi:docname="clock-rotate-left-solid.svg"
   inkscape:version="1.1.2 (0a00cf5339, 2022-02-04)"
   xmlns:inkscape="http://www.inkscape.org/namespaces/inkscape"
   xmlns:sodipodi="http://sodipodi.sourceforge.net/DTD/sodipodi-0.dtd"
   xmlns="http://www.w3.org/2000/svg"
   xmlns:svg="http://www.w3.org/2000/svg">
  <defs
     id="defs8" />
  <sodipodi:namedview
     id="namedview6"
     pagecolor="#ffffff"
     bordercolor="#666666"
     borderopacity="1.0"
     inkscape:pageshadow="2"
     inkscape:pageopacity="0.0"
     inkscape:pagecheckerboard="0"
     showgrid="false"
     inkscape:zoom="0.93359375"
     inkscape:cx="6.9623431"
     inkscape:cy="256"
     inkscape:window-width="1366"
     inkscape:window-height="726"
     inkscape:window-x="0"
     inkscape:window-y="42"
     inkscape:window-maximized="1"
     inkscape:current-layer="svg4" />
  <!--!Font Awesome Free 6.5.1 by @fontawesome - https://fontawesome.com License - https://fontawesome.com/license/free Copyright 2024 Fonticons, Inc.-->
  <path
     d="M75 75L41 41C25.9 25.9 0 36.6 0 57.9V168c0 13.3 10.7 24 24 24H134.1c21.4 0 32.1-25.9 17-41l-30.8-30.8C155 85.5 203 64 256 64c106 0 192 86 192 192s-86 192-192 192c-40.8 0-78.6-12.7-109.7-34.4c-14.5-10.1-34.4-6.6-44.6 7.9s-6.6 34.4 7.9 44.6C151.2 495 201.7 512 256 512c141.4 0 256-114.6 256-256S397.4 0 256 0C185.3 0 121.3 28.7 75 75zm181 53c-13.3 0-24 10.7-24 24V256c0 6.4 2.5 12.5 7 17l72 72c9.4 9.4 24.6 9.4 33.9 0s9.4-24.6 0-33.9l-65-65V152c0-13.3-10.7-24-24-24z"
     id="path2"
     style="fill:#ffffff" />
</svg>
